<?xml version="1.0" standalone="no"?>
<!DOCTYPE svg PUBLIC "-//W3C//DTD SVG 20010904//EN"
 "http://www.w3.org/TR/2001/REC-SVG-20010904/DTD/svg10.dtd">
<svg version="1.0" xmlns="http://www.w3.org/2000/svg"
 width="1024.000000pt" height="1024.000000pt" viewBox="0 0 1024.000000 1024.000000"
 preserveAspectRatio="xMidYMid meet">
<metadata>
Created by potrace 1.11, written by Peter Selinger 2001-2013
</metadata>
<g transform="translate(0.000000,1024.000000) scale(0.100000,-0.100000)"
fill="#000000" stroke="none">
<path d="M876 10229 c-374 -55 -697 -322 -819 -680 -61 -177 -57 143 -57
-4429 0 -4572 -4 -4252 57 -4429 111 -326 386 -576 729 -663 l89 -23 4245 0
4245 0 89 23 c343 87 618 337 729 663 61 177 57 -143 57 4429 0 3716 -2 4187
-15 4266 -39 219 -128 391 -287 551 -128 130 -282 220 -468 271 l-95 27 -4220
1 c-2339 1 -4246 -2 -4279 -7z m8322 -2569 c40 -5 89 -17 108 -26 59 -28 61
-46 31 -207 -48 -260 -104 -688 -132 -1022 -41 -500 -61 -1486 -45 -2310 14
-771 23 -883 89 -1098 51 -166 55 -194 37 -222 -41 -62 -191 -142 -328 -175
-170 -41 -435 -48 -530 -14 -155 54 -175 154 -158 763 11 409 27 855 35 1021
11 226 26 697 35 1175 12 605 0 875 -40 900 -59 37 -168 -236 -445 -1110 -148
-470 -288 -925 -420 -1370 -343 -1157 -327 -1111 -380 -1173 -39 -46 -118 -81
-202 -88 -66 -6 -77 -4 -128 21 -31 15 -61 37 -66 49 -5 11 -27 102 -49 201
-105 461 -267 1079 -492 1865 -220 773 -451 1529 -470 1541 -29 18 -53 -16
-59 -82 -15 -154 -31 -1313 -26 -1884 8 -836 28 -1195 82 -1463 24 -114 24
-125 10 -160 -40 -95 -133 -145 -362 -193 -145 -31 -374 -34 -416 -6 -16 10
-31 25 -34 33 -3 9 9 68 27 132 111 395 150 869 166 2037 5 319 2 666 -10
1135 -24 1010 -28 1051 -115 1283 -48 126 -50 155 -15 196 78 92 293 156 739
216 424 58 636 41 674 -53 6 -15 33 -126 60 -247 221 -980 479 -1932 646
-2379 57 -154 83 -196 120 -196 47 0 50 6 266 650 208 617 354 1084 530 1699
111 388 110 386 220 436 185 83 803 157 1047 125z m-4793 -116 c26 -10 48 -64
46 -116 -3 -162 -352 -817 -1091 -2048 -758 -1264 -1130 -1965 -1130 -2132 0
-85 68 -140 215 -173 99 -22 414 -31 556 -15 293 32 559 133 687 262 177 175
190 478 28 625 -82 74 -230 133 -336 133 -67 1 -123 16 -142 41 -39 48 -13
213 49 312 120 191 394 337 630 337 197 0 386 -106 470 -265 76 -146 98 -280
90 -557 -12 -431 -121 -815 -331 -1172 -31 -53 -71 -113 -89 -133 -54 -61 -72
-65 -290 -54 -402 21 -894 22 -1567 4 -677 -18 -1157 -15 -1240 7 -57 15 -74
46 -67 118 17 184 257 640 917 1747 734 1231 926 1580 1237 2245 140 300 143
312 78 345 -37 18 -60 20 -270 20 -209 -1 -241 -3 -350 -27 -222 -47 -444
-146 -611 -271 -218 -163 -328 -278 -460 -479 -45 -69 -93 -133 -106 -142 -34
-24 -82 -20 -117 10 l-31 26 0 151 c0 354 47 755 115 992 23 80 87 145 165
170 80 26 493 33 1220 21 537 -8 644 -7 1100 11 479 20 587 21 625 7z"/>
</g>
</svg>
